<svg id="Capa_1" data-name="Capa 1" xmlns="http://www.w3.org/2000/svg" viewBox="0 0 80 80"><defs><style>.cls-1{fill:none;stroke:#eebac2;stroke-miterlimit:10;}.cls-2{fill:#eebac2;}</style></defs><rect class="cls-1" x="4.19" y="22.45" width="55.04" height="55.04"/><rect class="cls-1" x="20.91" y="2.19" width="55.04" height="55.04"/><path class="cls-2" d="M11.88,12.85v55h55v-55ZM45.05,51.67a10.78,10.78,0,0,1-4.11.72A9.9,9.9,0,0,1,35.72,51a9.5,9.5,0,0,1-3.63-4.11,14.85,14.85,0,0,1-1.32-6.53,14.47,14.47,0,0,1,1.35-6.5,9.76,9.76,0,0,1,3.64-4.11,9.61,9.61,0,0,1,5.09-1.39,11.45,11.45,0,0,1,3.8.56,10.77,10.77,0,0,1,3,1.74l-1.8,2.13a7.27,7.27,0,0,0-4.83-1.72,6.63,6.63,0,0,0-3.48.92,6.28,6.28,0,0,0-2.43,3,13.42,13.42,0,0,0-.91,5.36,13.77,13.77,0,0,0,.87,5.3,6.34,6.34,0,0,0,2.39,3,6.53,6.53,0,0,0,3.52.94,7.64,7.64,0,0,0,3-.52,9.53,9.53,0,0,0,2.36-1.44L48,49.76A8.83,8.83,0,0,1,45.05,51.67Z"/></svg>